<?xml version="1.0" encoding="UTF-8" standalone="no"?>
<!DOCTYPE svg PUBLIC "-//W3C//DTD SVG 1.1//EN"
 "http://www.w3.org/Graphics/SVG/1.1/DTD/svg11.dtd">
<!-- Generated by graphviz version 5.0.0 (20220707.1540)
 -->
<!-- Title: dependencies Pages: 1 -->
<svg width="551pt" height="174pt"
 viewBox="0.00 0.00 551.00 173.80" xmlns="http://www.w3.org/2000/svg" xmlns:xlink="http://www.w3.org/1999/xlink">
<g id="graph0" class="graph" transform="scale(1 1) rotate(0) translate(4 169.8)">
<title>dependencies</title>
<polygon fill="white" stroke="transparent" points="-4,4 -4,-169.8 547,-169.8 547,4 -4,4"/>
<text text-anchor="middle" x="271.5" y="-8.2" font-family="sans-serif" font-size="14.00">dependencies</text>
<g id="clust1" class="cluster">
<title>cluster_AppModule</title>
<polygon fill="none" stroke="black" stroke-dasharray="1,5" points="8,-32.8 8,-157.8 535,-157.8 535,-32.8 8,-32.8"/>
</g>
<g id="clust3" class="cluster">
<title>cluster_AppModule_imports</title>
<polygon fill="none" stroke="black" points="16,-40.8 16,-92.8 527,-92.8 527,-40.8 16,-40.8"/>
</g>
<!-- AuthenticationModule -->
<g id="node1" class="node">
<title>AuthenticationModule</title>
<polygon fill="#8dd3c7" stroke="black" points="519.25,-84.8 516.25,-88.8 495.25,-88.8 492.25,-84.8 376.75,-84.8 376.75,-48.8 519.25,-48.8 519.25,-84.8"/>
<text text-anchor="middle" x="448" y="-62.6" font-family="Times,serif" font-size="14.00">AuthenticationModule</text>
</g>
<!-- AppModule -->
<g id="node5" class="node">
<title>AppModule</title>
<polygon fill="#8dd3c7" stroke="black" points="283.66,-149.8 280.66,-153.8 259.66,-153.8 256.66,-149.8 200.34,-149.8 200.34,-113.8 283.66,-113.8 283.66,-149.8"/>
<text text-anchor="middle" x="242" y="-127.6" font-family="Times,serif" font-size="14.00">AppModule</text>
</g>
<!-- AuthenticationModule&#45;&gt;AppModule -->
<g id="edge1" class="edge">
<title>AuthenticationModule&#45;&gt;AppModule</title>
<path fill="none" stroke="black" d="M448,-84.91C448,-104.14 448,-131.8 448,-131.8 448,-131.8 293.69,-131.8 293.69,-131.8"/>
<polygon fill="black" stroke="black" points="293.69,-128.3 283.69,-131.8 293.69,-135.3 293.69,-128.3"/>
</g>
<!-- DatabaseModule -->
<g id="node2" class="node">
<title>DatabaseModule</title>
<polygon fill="#8dd3c7" stroke="black" points="358.36,-84.8 355.36,-88.8 334.36,-88.8 331.36,-84.8 247.64,-84.8 247.64,-48.8 358.36,-48.8 358.36,-84.8"/>
<text text-anchor="middle" x="303" y="-62.6" font-family="Times,serif" font-size="14.00">DatabaseModule</text>
</g>
<!-- DatabaseModule&#45;&gt;AppModule -->
<g id="edge2" class="edge">
<title>DatabaseModule&#45;&gt;AppModule</title>
<path fill="none" stroke="black" d="M265.7,-84.91C265.7,-84.91 265.7,-103.79 265.7,-103.79"/>
<polygon fill="black" stroke="black" points="262.2,-103.79 265.7,-113.79 269.2,-103.79 262.2,-103.79"/>
</g>
<!-- MovieModule -->
<g id="node3" class="node">
<title>MovieModule</title>
<polygon fill="#8dd3c7" stroke="black" points="230.1,-84.8 227.1,-88.8 206.1,-88.8 203.1,-84.8 133.9,-84.8 133.9,-48.8 230.1,-48.8 230.1,-84.8"/>
<text text-anchor="middle" x="182" y="-62.6" font-family="Times,serif" font-size="14.00">MovieModule</text>
</g>
<!-- MovieModule&#45;&gt;AppModule -->
<g id="edge3" class="edge">
<title>MovieModule&#45;&gt;AppModule</title>
<path fill="none" stroke="black" d="M215.11,-84.91C215.11,-84.91 215.11,-103.79 215.11,-103.79"/>
<polygon fill="black" stroke="black" points="211.61,-103.79 215.11,-113.79 218.61,-103.79 211.61,-103.79"/>
</g>
<!-- UsersModule -->
<g id="node4" class="node">
<title>UsersModule</title>
<polygon fill="#8dd3c7" stroke="black" points="115.94,-84.8 112.94,-88.8 91.94,-88.8 88.94,-84.8 24.06,-84.8 24.06,-48.8 115.94,-48.8 115.94,-84.8"/>
<text text-anchor="middle" x="70" y="-62.6" font-family="Times,serif" font-size="14.00">UsersModule</text>
</g>
<!-- UsersModule&#45;&gt;AppModule -->
<g id="edge4" class="edge">
<title>UsersModule&#45;&gt;AppModule</title>
<path fill="none" stroke="black" d="M70,-84.91C70,-104.14 70,-131.8 70,-131.8 70,-131.8 189.92,-131.8 189.92,-131.8"/>
<polygon fill="black" stroke="black" points="189.92,-135.3 199.92,-131.8 189.92,-128.3 189.92,-135.3"/>
</g>
</g>
</svg>
