<?xml version="1.0" encoding="UTF-8" standalone="no"?>
<!DOCTYPE svg PUBLIC "-//W3C//DTD SVG 1.1//EN"
 "http://www.w3.org/Graphics/SVG/1.1/DTD/svg11.dtd">
<!-- Generated by graphviz version 5.0.0 (20220707.1540)
 -->
<!-- Title: dependencies Pages: 1 -->
<svg width="1186pt" height="326pt"
 viewBox="0.00 0.00 1186.00 325.80" xmlns="http://www.w3.org/2000/svg" xmlns:xlink="http://www.w3.org/1999/xlink">
<g id="graph0" class="graph" transform="scale(1 1) rotate(0) translate(4 321.8)">
<title>dependencies</title>
<polygon fill="white" stroke="transparent" points="-4,4 -4,-321.8 1182,-321.8 1182,4 -4,4"/>
<text text-anchor="middle" x="589" y="-8.2" font-family="sans-serif" font-size="14.00">dependencies</text>
<g id="clust1" class="cluster">
<title>cluster_AppModule</title>
<polygon fill="none" stroke="black" stroke-dasharray="1,5" points="522,-108.8 522,-309.8 888,-309.8 888,-108.8 522,-108.8"/>
</g>
<g id="clust3" class="cluster">
<title>cluster_AppModule_imports</title>
<polygon fill="none" stroke="black" points="530,-116.8 530,-244.8 880,-244.8 880,-116.8 530,-116.8"/>
</g>
<g id="clust7" class="cluster">
<title>cluster_AuthenticationModule</title>
<polygon fill="none" stroke="black" stroke-dasharray="1,5" points="8,-108.8 8,-176.8 514,-176.8 514,-108.8 8,-108.8"/>
</g>
<g id="clust12" class="cluster">
<title>cluster_AuthenticationModule_providers</title>
<polygon fill="none" stroke="black" points="16,-116.8 16,-168.8 506,-168.8 506,-116.8 16,-116.8"/>
</g>
<g id="clust19" class="cluster">
<title>cluster_MovieModule</title>
<polygon fill="none" stroke="black" stroke-dasharray="1,5" points="633,-32.8 633,-100.8 795,-100.8 795,-32.8 633,-32.8"/>
</g>
<g id="clust24" class="cluster">
<title>cluster_MovieModule_providers</title>
<polygon fill="none" stroke="black" points="641,-40.8 641,-92.8 787,-92.8 787,-40.8 641,-40.8"/>
</g>
<g id="clust25" class="cluster">
<title>cluster_UsersModule</title>
<polygon fill="none" stroke="black" stroke-dasharray="1,5" points="896,-184.8 896,-252.8 1170,-252.8 1170,-184.8 896,-184.8"/>
</g>
<g id="clust28" class="cluster">
<title>cluster_UsersModule_exports</title>
<polygon fill="none" stroke="black" points="1052,-192.8 1052,-244.8 1162,-244.8 1162,-192.8 1052,-192.8"/>
</g>
<g id="clust30" class="cluster">
<title>cluster_UsersModule_providers</title>
<polygon fill="none" stroke="black" points="904,-192.8 904,-244.8 1044,-244.8 1044,-192.8 904,-192.8"/>
</g>
<!-- AuthenticationModule -->
<g id="node1" class="node">
<title>AuthenticationModule</title>
<polygon fill="#8dd3c7" stroke="black" points="680.25,-236.8 677.25,-240.8 656.25,-240.8 653.25,-236.8 537.75,-236.8 537.75,-200.8 680.25,-200.8 680.25,-236.8"/>
<text text-anchor="middle" x="609" y="-214.6" font-family="Times,serif" font-size="14.00">AuthenticationModule</text>
</g>
<!-- AppModule -->
<g id="node5" class="node">
<title>AppModule</title>
<polygon fill="#8dd3c7" stroke="black" points="750.66,-301.8 747.66,-305.8 726.66,-305.8 723.66,-301.8 667.34,-301.8 667.34,-265.8 750.66,-265.8 750.66,-301.8"/>
<text text-anchor="middle" x="709" y="-279.6" font-family="Times,serif" font-size="14.00">AppModule</text>
</g>
<!-- AuthenticationModule&#45;&gt;AppModule -->
<g id="edge1" class="edge">
<title>AuthenticationModule&#45;&gt;AppModule</title>
<path fill="none" stroke="black" d="M673.77,-236.91C673.77,-236.91 673.77,-255.79 673.77,-255.79"/>
<polygon fill="black" stroke="black" points="670.27,-255.79 673.77,-265.79 677.27,-255.79 670.27,-255.79"/>
</g>
<!-- DatabaseModule -->
<g id="node2" class="node">
<title>DatabaseModule</title>
<polygon fill="#8dd3c7" stroke="black" points="648.36,-160.8 645.36,-164.8 624.36,-164.8 621.36,-160.8 537.64,-160.8 537.64,-124.8 648.36,-124.8 648.36,-160.8"/>
<text text-anchor="middle" x="593" y="-138.6" font-family="Times,serif" font-size="14.00">DatabaseModule</text>
</g>
<!-- DatabaseModule&#45;&gt;AppModule -->
<g id="edge2" class="edge">
<title>DatabaseModule&#45;&gt;AppModule</title>
<path fill="none" stroke="black" d="M593.03,-160.91C593.03,-170.7 593.03,-180.8 593.03,-180.8 593.03,-180.8 703.86,-180.8 703.86,-180.8 703.86,-180.8 703.86,-255.39 703.86,-255.39"/>
<polygon fill="black" stroke="black" points="700.36,-255.39 703.86,-265.39 707.36,-255.39 700.36,-255.39"/>
</g>
<!-- MovieModule -->
<g id="node3" class="node">
<title>MovieModule</title>
<polygon fill="#8dd3c7" stroke="black" points="762.1,-160.8 759.1,-164.8 738.1,-164.8 735.1,-160.8 665.9,-160.8 665.9,-124.8 762.1,-124.8 762.1,-160.8"/>
<text text-anchor="middle" x="714" y="-138.6" font-family="Times,serif" font-size="14.00">MovieModule</text>
</g>
<!-- MovieModule&#45;&gt;AppModule -->
<g id="edge3" class="edge">
<title>MovieModule&#45;&gt;AppModule</title>
<path fill="none" stroke="black" d="M727.35,-160.94C727.35,-160.94 727.35,-255.73 727.35,-255.73"/>
<polygon fill="black" stroke="black" points="723.85,-255.72 727.35,-265.73 730.85,-255.73 723.85,-255.72"/>
</g>
<!-- UsersModule -->
<g id="node4" class="node">
<title>UsersModule</title>
<polygon fill="#8dd3c7" stroke="black" points="871.94,-160.8 868.94,-164.8 847.94,-164.8 844.94,-160.8 780.06,-160.8 780.06,-124.8 871.94,-124.8 871.94,-160.8"/>
<text text-anchor="middle" x="826" y="-138.6" font-family="Times,serif" font-size="14.00">UsersModule</text>
</g>
<!-- UsersModule&#45;&gt;AuthenticationModule -->
<g id="edge5" class="edge">
<title>UsersModule&#45;&gt;AuthenticationModule</title>
<path fill="none" stroke="black" d="M803.14,-160.83C803.14,-181.57 803.14,-212.8 803.14,-212.8 803.14,-212.8 690.46,-212.8 690.46,-212.8"/>
<polygon fill="black" stroke="black" points="690.46,-209.3 680.46,-212.8 690.46,-216.3 690.46,-209.3"/>
</g>
<!-- UsersModule&#45;&gt;AppModule -->
<g id="edge4" class="edge">
<title>UsersModule&#45;&gt;AppModule</title>
<path fill="none" stroke="black" d="M826,-160.94C826,-199.03 826,-283.8 826,-283.8 826,-283.8 760.91,-283.8 760.91,-283.8"/>
<polygon fill="black" stroke="black" points="760.91,-280.3 750.91,-283.8 760.91,-287.3 760.91,-280.3"/>
</g>
<!-- UsersService  -->
<g id="node10" class="node">
<title>UsersService </title>
<polygon fill="#fb8072" stroke="black" points="1153.86,-236.8 1060.14,-236.8 1060.14,-200.8 1153.86,-200.8 1153.86,-236.8"/>
<text text-anchor="middle" x="1107" y="-214.6" font-family="Times,serif" font-size="14.00">UsersService </text>
</g>
<!-- UsersModule&#45;&gt;UsersService  -->
<g id="edge10" class="edge">
<title>UsersModule&#45;&gt;UsersService </title>
<path fill="none" stroke="black" stroke-dasharray="5,2" d="M871.77,-142.8C951.4,-142.8 1107,-142.8 1107,-142.8 1107,-142.8 1107,-190.79 1107,-190.79"/>
<polygon fill="black" stroke="black" points="1103.5,-190.79 1107,-200.79 1110.5,-190.79 1103.5,-190.79"/>
</g>
<!-- AuthenticationService -->
<g id="node6" class="node">
<title>AuthenticationService</title>
<ellipse fill="#fdb462" stroke="black" cx="401" cy="-142.8" rx="97.27" ry="18"/>
<text text-anchor="middle" x="401" y="-138.6" font-family="Times,serif" font-size="14.00">AuthenticationService</text>
</g>
<!-- AuthenticationService&#45;&gt;AuthenticationModule -->
<g id="edge6" class="edge">
<title>AuthenticationService&#45;&gt;AuthenticationModule</title>
<path fill="none" stroke="black" d="M401,-161.11C401,-180.95 401,-209.8 401,-209.8 401,-209.8 527.71,-209.8 527.71,-209.8"/>
<polygon fill="black" stroke="black" points="527.71,-213.3 537.71,-209.8 527.71,-206.3 527.71,-213.3"/>
</g>
<!-- JwtStrategy -->
<g id="node7" class="node">
<title>JwtStrategy</title>
<ellipse fill="#fdb462" stroke="black" cx="229" cy="-142.8" rx="56.77" ry="18"/>
<text text-anchor="middle" x="229" y="-138.6" font-family="Times,serif" font-size="14.00">JwtStrategy</text>
</g>
<!-- JwtStrategy&#45;&gt;AuthenticationModule -->
<g id="edge7" class="edge">
<title>JwtStrategy&#45;&gt;AuthenticationModule</title>
<path fill="none" stroke="black" d="M229,-160.81C229,-183.29 229,-218.8 229,-218.8 229,-218.8 527.52,-218.8 527.52,-218.8"/>
<polygon fill="black" stroke="black" points="527.52,-222.3 537.52,-218.8 527.52,-215.3 527.52,-222.3"/>
</g>
<!-- LocalStrategy -->
<g id="node8" class="node">
<title>LocalStrategy</title>
<ellipse fill="#fdb462" stroke="black" cx="89" cy="-142.8" rx="65.4" ry="18"/>
<text text-anchor="middle" x="89" y="-138.6" font-family="Times,serif" font-size="14.00">LocalStrategy</text>
</g>
<!-- LocalStrategy&#45;&gt;AuthenticationModule -->
<g id="edge8" class="edge">
<title>LocalStrategy&#45;&gt;AuthenticationModule</title>
<path fill="none" stroke="black" d="M89,-160.83C89,-185.78 89,-227.8 89,-227.8 89,-227.8 527.51,-227.8 527.51,-227.8"/>
<polygon fill="black" stroke="black" points="527.51,-231.3 537.51,-227.8 527.51,-224.3 527.51,-231.3"/>
</g>
<!-- MovieService -->
<g id="node9" class="node">
<title>MovieService</title>
<ellipse fill="#fdb462" stroke="black" cx="714" cy="-66.8" rx="65.41" ry="18"/>
<text text-anchor="middle" x="714" y="-62.6" font-family="Times,serif" font-size="14.00">MovieService</text>
</g>
<!-- MovieService&#45;&gt;MovieModule -->
<g id="edge9" class="edge">
<title>MovieService&#45;&gt;MovieModule</title>
<path fill="none" stroke="black" d="M714,-84.81C714,-84.81 714,-114.65 714,-114.65"/>
<polygon fill="black" stroke="black" points="710.5,-114.65 714,-124.65 717.5,-114.65 710.5,-114.65"/>
</g>
<!-- UsersService -->
<g id="node11" class="node">
<title>UsersService</title>
<ellipse fill="#fdb462" stroke="black" cx="974" cy="-218.8" rx="61.97" ry="18"/>
<text text-anchor="middle" x="974" y="-214.6" font-family="Times,serif" font-size="14.00">UsersService</text>
</g>
<!-- UsersService&#45;&gt;UsersModule -->
<g id="edge11" class="edge">
<title>UsersService&#45;&gt;UsersModule</title>
<path fill="none" stroke="black" d="M915.46,-224.8C882.89,-224.8 848.86,-224.8 848.86,-224.8 848.86,-224.8 848.86,-171 848.86,-171"/>
<polygon fill="black" stroke="black" points="852.36,-171 848.86,-161 845.36,-171 852.36,-171"/>
</g>
</g>
</svg>
